<?xml version="1.0" encoding="UTF-8"?>
<svg xmlns="http://www.w3.org/2000/svg" viewBox="0 0 24 24" fill="#ffffff">
	<path d="M19.829 12.001c0-1.54-.423-2.981-1.188-4.223l1.854-1.854a.502.502 0 0 0 0-.707l-1.414-1.414a.502.502 0 0 0-.707 0l-1.854 1.854c-1.242-.765-2.683-1.188-4.223-1.188s-2.981.423-4.223 1.188L5.92 3.777a.502.502 0 0 0-.707 0L3.799 5.191a.502.502 0 0 0 0 .707l1.854 1.854c-.765 1.242-1.188 2.683-1.188 4.223s.423 2.981 1.188 4.223l-1.854 1.854a.502.502 0 0 0 0 .707l1.414 1.414a.502.502 0 0 0 .707 0l1.854-1.854c1.242.765 2.683 1.188 4.223 1.188s2.981-.423 4.223-1.188l1.854 1.854a.502.502 0 0 0 .707 0l1.414-1.414a.502.502 0 0 0 0-.707l-1.854-1.854c.765-1.242 1.188-2.683 1.188-4.223zM12 15.5a3.5 3.5 0 1 1 0-7 3.5 3.5 0 0 1 0 7z"/>
</svg>