<!DOCTYPE svg PUBLIC "-//W3C//DTD SVG 1.1//EN" "http://www.w3.org/Graphics/SVG/1.1/DTD/svg11.dtd">
<!-- Uploaded to: SVG Repo, www.svgrepo.com, Transformed by: SVG Repo Mixer Tools -->
<svg fill="#ffffff" version="1.1" id="Capa_1" xmlns="http://www.w3.org/2000/svg" xmlns:xlink="http://www.w3.org/1999/xlink" width="20px" height="20px" viewBox="0 0 54.959 54.958" xml:space="preserve">

<g id="SVGRepo_bgCarrier" stroke-width="0"/>

<g id="SVGRepo_tracerCarrier" stroke-linecap="round" stroke-linejoin="round"/>

<g id="SVGRepo_iconCarrier"> <g> <g> <path d="M24.73,25.605c-0.276,0-0.5,0.225-0.5,0.5v5c0,0.275,0.224,0.5,0.5,0.5h5.5c0.275,0,0.5-0.225,0.5-0.5v-5 c0-0.275-0.225-0.5-0.5-0.5H24.73z"/> <path d="M54.959,31.851v-6.246H33.68c0.023,0.165,0.051,0.329,0.051,0.5v5c0,1.931-1.57,3.5-3.5,3.5h-5.5 c-1.93,0-3.5-1.569-3.5-3.5v-5c0-0.171,0.027-0.335,0.051-0.5H0v5.944v3.091v9.201v2.23c0,2.871,2.262,4.287,5.197,5.197 c0,0,14.313,1.857,22.281,1.771c8.922-0.048,22.283-1.771,22.283-1.771c3.031-0.981,5.197-2.326,5.197-5.197V34.791l0,0 L54.959,31.851L54.959,31.851z"/> <path d="M24.73,22.605h5.5h24.729v-6.675c0-2.87-2.352-4.347-5.197-5.197c0,0-4.949-0.691-10.775-1.241l-0.266-3.124 c-0.043-2.463-2.058-4.453-4.531-4.453H20.77c-2.473,0-4.488,1.99-4.531,4.453l-0.271,3.124c-5.824,0.55-10.77,1.241-10.77,1.241 c-2.906,0.887-5.197,2.327-5.197,5.197v1.793v4.882H24.73z M19.524,6.589l0.006-0.143c0-0.684,0.557-1.239,1.24-1.239h13.419 c0.685,0,1.24,0.556,1.24,1.239l0.234,2.757c-2.844-0.221-5.717-0.375-8.186-0.375c-2.467,0-5.338,0.154-8.182,0.375L19.524,6.589 z"/> </g> </g> </g>

</svg>